<?xml version="1.0" encoding="utf-8"?>
<!-- Generator: Adobe Illustrator 19.2.1, SVG Export Plug-In . SVG Version: 6.00 Build 0)  -->
<svg version="1.1" id="layer" xmlns="http://www.w3.org/2000/svg" xmlns:xlink="http://www.w3.org/1999/xlink" x="0px" y="0px"
	 viewBox="0 0 652 652" style="enable-background:new 0 0 652 652;" xml:space="preserve">
<style type="text/css">
	.st0{fill:#003D7D;}
	.st1{fill:#FFFFFF;}
	.st2{fill:#EE3D42;}
</style>
<path class="st0" d="M125.1,510c0,34.5,28,62.4,62.4,62.4h239.8c34.4,0,62.4-27.9,62.4-62.4V134c0-34.5-28-62.4-62.4-61.6H187.5
	c-34.5-0.8-62.4,27.1-62.4,61.6V510"/>
<path class="st1" d="M187.5,85.8c-26.6,0-48.2,21.6-48.2,48.2v376c0,26.6,21.6,48.2,48.2,48.2h239.8c26.6,0,48.1-21.6,48.1-48.2V134
	c0-26.6-21.5-48.2-48.1-48.2H187.5"/>
<path class="st0" d="M187.3,93.1c-22.6,0-40.9,18.3-40.9,40.8v376c0,22.5,18.3,40.9,40.9,40.9h239.6c22.6,0,40.8-18.4,40.8-40.9V134
	c0-22.6-18.2-40.8-40.8-40.8H187.3"/>
<path class="st0" d="M489.8,559.2c0-7.3,5.9-13.2,13.2-13.2c7.3,0,13.2,5.9,13.2,13.2c0,7.3-5.9,13.2-13.2,13.2
	C495.7,572.4,489.8,566.5,489.8,559.2 M514.1,559.2c0-6.4-4.6-11.5-11.1-11.5c-6.4,0-11.1,5-11.1,11.5c0,6.4,4.7,11.5,11.1,11.5
	C509.5,570.7,514.1,565.6,514.1,559.2z M509.6,566.6h-2.1l-4.2-6.8H500v6.8h-1.9v-14.8h6.4l5.3,3.9l-4.7,4.1L509.6,566.6z
	 M502.7,558.3l5.2-2.6l-3.7-2.6H500v5.2H502.7z"/>
<path class="st1" d="M198.5,157.8h6.7l6.6,6.1c0,3.7-3,6-7.6,6h-5.6V157.8 M186.3,184.8l-2.7,2.4h-3.9v5.3h25.7v-5.3H201l-2.5-2.4
	v-9.6h7.2c11.9,0,18.3-3.2,18.3-11.4s-6.4-11.4-17-11.4h-27.4v5.4h4l2.7,2.4V184.8z"/>
<path class="st1" d="M276.1,176.7h-3l-2.6,2.4V193h-5.6l-1.5-3c-3.7,2.8-8.6,3.7-12.8,3.7c-13.6,0-23.1-7.1-23.1-20.6
	c0-13.7,9.1-21.9,23.1-21.9l11.7,4.1l1.3-3.4h6V166h-6.2c-0.2-5.9-4.1-9.1-10.7-9.1c-7.6,0-11.1,5.2-11.1,15.6
	c0,10.4,3.6,15.5,11.1,15.5l5.5-3.8v-5.1l-2.5-2.4h-3.4v-5.3h23.8V176.7"/>
<path class="st1" d="M325.8,187.9c-4.3-0.7-4.4-1.7-6.1-5.3l-13-29.7h-9.8l-12.3,27.5c-2,4-3.1,7.1-8.7,7.6v4.6h19.5v-4.6l-0.6-0.1
	l-5-2.1l0.7-2.6l0.7-1.9h15.5l0.9,1.9l0.9,3l-5.3,1.9v4.6h23.2v-4.6L325.8,187.9 M293.3,176.4l6-13.5l5.6,13.5H293.3z"/>
<path class="st1" d="M438.4,208.8c6.3-6.3,6.4-21.4,6.4-21.4c-6.2-11.4-19.3-14.8-19.3-14.8l-6.2,0.9h-0.1l-104.8-64
	c-7.8-3.9-18.3,9.6-21,14.5l4.7,5.9c9.6,6.2,14.1-9.7,17.6-15.4l101.4,64.1l0.7,5.5c-0.1,8.3,6.6,15.3,2.6,27.3
	c-1,16.8-19.3,20.3-29.2,30.8c-9.2,9-27.3,7.8-34.8,15.2l-0.2,0.2l-0.1-0.3c-6.5-17.1-10.4-18.1-12.4-24.9
	c-7.9-2.9-17.4-3.7-25.1,0.4c-7.3,4.8-11,13.9-9.7,21.9c0.2,8.2,11.7,17,17.8,20.6c-4,5.5-5.8,12.5-5.9,15.3
	c-0.9,12.2,8.7,23.7,11.4,28.5c11.2,16.8,17.7,30.3,20.2,35l0.3,2.8c0,0.3-9.7,17.2,6.2,41.5c6.5,12.4,15.9,40.4,15.9,40.4
	c3.8,4-5.1,1.6-5.9,10.6c-6.2,2.5-53.7,38.8-64.3,48.3c-4.3,1.3-9.8,1.1-11.6,6.4l-2.9,6.3c-4.5,5.3-9.9,14.6-10.9,23.7
	c-1,4.7,0.1,13.8,5.5,16.2h4.2l4.2-9.6c3.8-9.2,9.3-11.7,22.1-24.3c6.4,1.7,9.2,5.5,15.8,7.1c17.8-16.4,35.7-31.7,53.1-48.5
	c-2.7,26.2-5.1,53.1-5,60.4c-1.1,4.6-1.3,12.5,2.1,16.4c0,0,29,1.7,34.5,1.3l3-1.9c0,0,2.6-3.9-4.4-9.1l-10.8-10.1
	c5-1.2,10.3-2,11.5-2c-1.4-13.8-1.7-43.5-2.7-82.6c-4.3-40.3-4.7-53.9-24.8-136.6c14.2-16.2,13.7-26.2,27.4-42.9
	C422.2,253.3,433.6,224.1,438.4,208.8 M377.8,283.4l-3.5-10l18.1-12.3l0.4,2.1L377.8,283.4z"/>
<path class="st1" d="M263.4,501.7l-2.9-2.8v-2.7c0-4.3-0.3-8.7-2.3-12.6l-1.7-2.6l0.8-0.4l0-0.1l0-0.1c4.7-4,7-9.3,7-15.8
	c0-4.4-1.1-9-3-12.9l-0.1-0.1l0-0.2c-2.9-4.8-7.1-8-12.7-9.7c7.6-4.5,11.5-12.1,11.5-22.8V384h9l-0.1-22.8h-21.4
	c12.4-6.9,19.5-19.7,19.5-36.8c0-18.7-8-30.3-19-36.5h8.2v-21.1h-15.9c0-1.9,0-32,0-37.9c3.5,0.3,6,3.8,6.2,9.5l0.3,7h22.1v-39.3
	h-89.6v39.3h22.1l0.1-7c0.4-5.7,2.8-9.2,6.3-9.5c0,5.9,0,36,0,37.9h-16V288h6.8c-10.9,6.2-19,17.8-19,36.5
	c0,17.1,7.1,29.9,19.5,36.8h-19.3V384h9.1v37c0,6.9,3.2,14.2,11,19.1h-20.4l0,22.4h8.7l1.4,1.6c0,6.3,0,28.8,0,35.8l-1.4,1.6h-8.6
	v22.2h54.4v-6.6c4.2,4.7,10.3,7.1,18.2,7.1h18.7v-22.4L263.4,501.7 M221.8,384H235l1.1,1.1c0,0.9,0,29.8,0,34.2
	c0,2.5-2.1,4.4-7.5,4.4c-5.4,0-8.1-1.9-8.1-4.4v-34.2L221.8,384z M232.5,324.5c0,13.6-2.9,20.5-8.8,20.5c-2.8,0-8.9,0-8.9-20.5
	c0-20.4,6.2-20.4,8.9-20.4C227.4,304,232.5,304,232.5,324.5z M221.9,501.5l-1.6-1.3v-8.7h5.8l2.6,2.3l0.1,4.2l-0.1,3.5H221.9z
	 M220.5,470.1v-9.4h8.9l4.4,4.5l-4.2,4.8L220.5,470.1z"/>
<path class="st2" d="M261.5,211.9h-76.4v27.6h10.4l0-1.4c0.4-10.4,6.6-15.2,12.4-15.2l5.8,2.5V268l-3.7,4.8h-12.4v9.3h52.6v-9.3
	h-12.4l-3.7-4.8v-42.6l5.6-2.5c6,0,12,4.8,12.4,15.2v1.4h10.6v-27.6H261.5"/>
<path class="st2" d="M262.9,367.2h-31.4v10.9h5.9l3.9,1l0.7,3.5v38.7c-0.2,1.9-2,8.4-13.4,8.4c-8.8,0-14-3.4-14-9v-37.9
	c0-4.3,2-4.7,3.9-4.7h7v-11h-39.9v10.9h4.5l3.9,1l0.7,3.5V421c0,9.4,8.5,19.5,32,19.5c24.1,0,27.2-11.6,27.2-21.7v-35.9
	c0-4.3,2-4.7,3.9-4.7h5.1L262.9,367.2"/>
<path class="st2" d="M223.2,287.9c-18.2,0-37.8,9.2-37.8,36.6c0,23.3,14.2,36.6,37.8,36.6c23.7,0,37.9-13.3,37.9-36.6
	C261.1,297.1,241.5,287.9,223.2,287.9 M223.7,350.8c-6.3,0-14.7-2.1-14.7-26.3c0-18.1,4.8-26.3,14.7-26.3c10.5,0,14.8,7.2,14.8,26.3
	C238.5,342.1,233.4,350.8,223.7,350.8z"/>
<path class="st2" d="M263.6,507.3c-2.6,0-8.7-0.2-8.7-8.4v-2.7l-1.8-10l-7.4-6.1l8.1-4.2c3.1-2.7,4.9-6.3,4.9-11.2l-2.4-10.2
	c-3.4-5.6-9.2-8.2-18.2-8.2l-52.4-0.1l0,10.7l6.8-0.1l3.4,2.9c0,0,0,33.2,0,44l-3.2,3.6h-7l0,10.6h43.4v-10.6h-10.8l-3.4-3.8
	c0,0,0-13.3,0-17.7h12.9c1.4,0,6.9,0.7,6.9,7.3l0,4.6c0,4-0.5,7.2,1.4,11.8c2.9,6,8.3,8.9,16.2,8.9H265v-11H263.6 M214.6,454.9
	c2.1,0,9.7,0,15.2,0c4.8,0,8.4,2.2,9.5,6l-0.4,9c-1.5,3.9-4.7,6-9.2,6h-15.1V454.9z"/>
</svg>
